<?xml version="1.0" encoding="UTF-8"?><svg id="Capa_2" xmlns="http://www.w3.org/2000/svg" viewBox="0 0 1080 329.99"><defs><style>.cls-1{fill:#395b98;stroke-width:0px;}</style></defs><g id="Capa_1-2"><path class="cls-1" d="m44.6,111.89c11.57,0,20.81-3.86,27.73-11.59,6.92-7.73,10.38-17.38,10.38-28.95V0h4.86v71.35c0,13.3-3.92,24.19-11.76,32.68-7.84,8.49-18.24,12.73-31.22,12.73-13.62,0-24.46-4.22-32.51-12.65C4.03,95.68,0,84.76,0,71.35V0h8.11v71.35c0,11.68,3.27,21.35,9.81,29.03,6.54,7.68,15.43,11.51,26.68,11.51Z"/><path class="cls-1" d="m177.57,67.3v-.81c7.89-1.84,14.19-5.65,18.89-11.43,4.7-5.78,7.05-12.78,7.05-21,0-10.81-4.05-19.19-12.16-25.14-8.11-5.94-17.84-8.92-29.19-8.92h-38.92v113.51h8.11V4.86h30.81c6.7,0,12.73,1.49,18.08,4.46,5.35,2.97,9.38,7.38,12.08,13.22,1.51,3.68,2.27,7.51,2.27,11.51,0,8.76-3.16,15.81-9.49,21.16-5.15,4.36-19.7,7.75-19.7,7.75l3.24,5.14,31.62,45.41h9.73l-32.43-46.22Z"/><path class="cls-1" d="m233.51,0h30c17.4,0,31.89,5.22,43.46,15.65,11.57,10.43,17.35,24.14,17.35,41.11s-5.84,30.95-17.51,41.27c-11.68,10.33-26.11,15.49-43.3,15.49h-30V0Zm30,4.86h-21.89v103.78h21.89c15.13,0,27.57-4.92,37.3-14.76,9.73-9.84,14.59-22.22,14.59-37.14s-4.92-27.57-14.76-37.3c-9.84-9.73-22.22-14.59-37.14-14.59Z"/><polygon class="cls-1" points="393.24 0 386.76 0 338.11 113.51 344.59 113.51 387.57 10.54 388.38 10.54 432.16 113.51 441.08 113.51 393.24 0"/><path class="cls-1" d="m534,9.57c-8.33-6.38-18.22-9.57-29.68-9.57h-40.54v4.86h40.54c9.19,0,17.03,2.87,23.51,8.59,6.49,5.73,9.73,13.14,9.73,22.22s-3.19,16.62-9.57,22.3c-6.38,5.68-14.27,8.51-23.68,8.51h-40.54v47.03h8.11v-42.16h32.43c11.35,0,21.22-3.16,29.59-9.49,8.38-6.32,12.57-15.05,12.57-26.19s-4.16-19.73-12.49-26.11Z"/><path class="cls-1" d="m579.73,0v113.51h-8.11V0h8.11Z"/><path class="cls-1" d="m623.51,0v108.65h66.49l-1.62,4.86h-72.97V0h8.11Z"/><path class="cls-1" d="m719.19,0v108.65h66.49l-1.62,4.86h-72.97V0h8.11Z"/><path class="cls-1" d="m814.86,57.57v51.08h69.73v4.86h-77.84V0h74.6l-1.62,4.86h-64.87v47.84h48.65l-1.62,4.86h-47.03Z"/><path class="cls-1" d="m932.43,113.51V4.86h-41.35V0h90.81l-1.62,4.86h-39.73v108.65h-8.11Z"/><polygon class="cls-1" points="1032.16 0 1025.68 0 977.03 113.51 983.51 113.51 1026.49 10.54 1027.3 10.54 1071.08 113.51 1080 113.51 1032.16 0"/><path class="cls-1" d="m412.78,216.87h-9.18v12.08h-3.58v-31.33h10.97c3.37,0,6.23.81,8.57,2.44,2.34,1.63,3.51,4.02,3.51,7.18,0,2.12-.6,3.94-1.81,5.46-1.21,1.52-2.84,2.54-4.9,3.04v.22l8.95,12.98h-4.25l-8.28-12.08Zm-9.18-2.24h7.38c2.39,0,4.36-.66,5.93-1.97,1.57-1.31,2.35-3.12,2.35-5.42s-.79-4.18-2.37-5.46c-1.58-1.28-3.55-1.93-5.91-1.93h-7.38v14.77Z"/><path class="cls-1" d="m434.49,213.96v12.76h18.8v2.24h-22.38v-31.33h21.71l-.45,2.24h-17.68v11.86h13.2l-.45,2.24h-12.76Z"/><path class="cls-1" d="m480.81,228.95l-3.36-8.06h-15.89l-3.36,8.06h-2.69l13.2-31.33h2.91l13.2,31.33h-4.03Zm-11.41-26.85l-6.94,16.56h14.1l-6.94-16.56h-.22Z"/><path class="cls-1" d="m493.56,197.62v29.09h17.9l-.45,2.24h-21.04v-31.33h3.58Z"/><path class="cls-1" d="m530.71,213.96v12.76h18.8v2.24h-22.38v-31.33h21.71l-.45,2.24h-17.68v11.86h13.2l-.45,2.24h-12.75Z"/><path class="cls-1" d="m553.99,205.01c0-1.79.6-3.35,1.81-4.68,1.21-1.33,2.72-2.31,4.54-2.93,1.34-.45,2.88-.67,4.61-.67,2.15,0,4.2.53,6.15,1.59,1.95,1.06,3.63,2.47,5.04,4.23l-1.34,1.12c-1.28-1.49-2.78-2.69-4.5-3.58-1.72-.9-3.5-1.34-5.35-1.34s-3.58.58-5.01,1.75c-1.43,1.16-2.15,2.67-2.15,4.52,0,.63.14,1.2.42,1.72.28.52.7.98,1.25,1.39.55.4,1.06.73,1.52.98.46.25,1.02.51,1.68.78,1.16.54,2.67,1.13,4.52,1.79,1.28.45,2.39.9,3.31,1.34.93.45,1.89,1.03,2.91,1.75,1.01.72,1.8,1.57,2.35,2.57.55,1,.83,2.11.83,3.34,0,1.97-.65,3.68-1.95,5.15-1.3,1.46-2.95,2.55-4.95,3.27-1.52.51-3.18.76-4.97.76-2.51,0-4.91-.63-7.21-1.88-2.3-1.25-4.15-2.94-5.55-5.06l1.34-1.12c1.28,1.88,2.94,3.36,4.97,4.43,2.03,1.07,4.18,1.61,6.44,1.61s4.18-.65,5.73-1.95c1.55-1.3,2.33-3.03,2.33-5.21,0-.63-.14-1.2-.42-1.72-.29-.52-.7-.99-1.25-1.41-.55-.42-1.05-.74-1.5-.98-.45-.24-1.01-.51-1.7-.81-1.28-.54-2.79-1.12-4.52-1.75-1.28-.45-2.39-.9-3.31-1.34-.93-.45-1.9-1.03-2.91-1.75-1.01-.72-1.8-1.57-2.35-2.57-.55-1-.83-2.11-.83-3.34Z"/><path class="cls-1" d="m590.02,228.95v-29.09h-10.97v-2.24h25.51l-.45,2.24h-10.52v29.09h-3.58Z"/><path class="cls-1" d="m628.06,228.95l-3.36-8.06h-15.89l-3.36,8.06h-2.69l13.2-31.33h2.91l13.2,31.33h-4.03Zm-11.41-26.85l-6.94,16.56h14.1l-6.94-16.56h-.22Z"/><path class="cls-1" d="m641.26,228.95v-29.09h-10.97v-2.24h25.51l-.45,2.24h-10.52v29.09h-3.58Z"/><path class="cls-1" d="m664.09,213.96v12.76h18.8v2.24h-22.38v-31.33h21.71l-.45,2.24h-17.68v11.86h13.2l-.45,2.24h-12.76Z"/><path class="cls-1" d="m352.88,311.31l-9.18,14.63h-.62l-9.19-14.63h-.16v18.06h-1.56v-21.8h2.34l9.34,14.94h.16l9.34-14.94h2.18v21.8h-2.49v-18.06h-.16Z"/><path class="cls-1" d="m363.93,307.57v21.8h-2.49v-21.8h2.49Z"/><path class="cls-1" d="m385.1,329.37l-2.34-5.6h-11.05l-2.34,5.6h-1.87l9.19-21.8h2.02l9.19,21.8h-2.8Zm-7.94-18.68l-4.82,11.52h9.81l-4.82-11.52h-.16Z"/><path class="cls-1" d="m412.19,311.31l-9.19,14.63h-.62l-9.18-14.63h-.16v18.06h-1.56v-21.8h2.34l9.34,14.94h.16l9.34-14.94h2.18v21.8h-2.49v-18.06h-.16Z"/><path class="cls-1" d="m423.25,307.57v21.8h-2.49v-21.8h2.49Z"/><path class="cls-1" d="m605.77,319.71v9.65h-2.49v-21.8h14.95l-.31,1.56h-12.14v9.03h9.65l-.31,1.56h-9.34Z"/><path class="cls-1" d="m623.98,307.57v20.24h12.45l-.31,1.56h-14.63v-21.8h2.49Z"/><path class="cls-1" d="m637.84,318.47c0-3.22,1.08-5.94,3.22-8.17,2.15-2.23,4.81-3.35,7.99-3.35s5.89,1.12,8.02,3.36c2.13,2.24,3.19,4.96,3.19,8.16s-1.08,5.92-3.24,8.16-4.82,3.36-7.97,3.36-5.84-1.13-7.99-3.38c-2.15-2.25-3.22-4.97-3.22-8.14Zm19.77,0c0-1.7-.33-3.32-1-4.84-.67-1.53-1.66-2.79-2.99-3.78-1.33-1-2.85-1.49-4.58-1.49-2.57,0-4.64,1.03-6.21,3.08-1.57,2.05-2.35,4.4-2.35,7.04,0,1.99.46,3.86,1.38,5.6.92,1.74,2.24,3,3.94,3.77,1.04.5,2.12.75,3.24.75,1.78,0,3.38-.56,4.79-1.68,1.41-1.12,2.44-2.55,3.08-4.3.46-1.22.68-2.6.68-4.14Z"/><path class="cls-1" d="m673.64,320.96h-6.38v8.41h-2.49v-21.8h7.63c2.35,0,4.33.57,5.96,1.7,1.63,1.13,2.44,2.8,2.44,5,0,1.47-.42,2.74-1.26,3.8-.84,1.06-1.98,1.77-3.41,2.12v.16l6.23,9.03h-2.96l-5.76-8.41Zm-6.38-1.56h5.14c1.66,0,3.03-.46,4.13-1.37,1.09-.91,1.63-2.17,1.63-3.77s-.55-2.91-1.65-3.8c-1.1-.89-2.47-1.34-4.11-1.34h-5.14v10.28Z"/><path class="cls-1" d="m688.74,307.57v21.8h-2.49v-21.8h2.49Z"/><path class="cls-1" d="m694.66,307.57h6.23c3.32,0,6.12,1.01,8.41,3.03,2.28,2.02,3.42,4.64,3.42,7.86s-1.16,5.89-3.47,7.89c-2.31,2-5.1,3-8.36,3h-6.23v-21.8Zm6.23,1.56h-3.74v18.68h3.74c2.7,0,4.9-.89,6.62-2.68,1.71-1.79,2.57-4.01,2.57-6.66s-.86-4.95-2.58-6.71-3.92-2.63-6.6-2.63Z"/><path class="cls-1" d="m732.49,329.37l-2.34-5.6h-11.05l-2.34,5.6h-1.87l9.19-21.8h2.02l9.19,21.8h-2.8Zm-7.94-18.68l-4.82,11.52h9.81l-4.82-11.52h-.16Z"/><rect class="cls-1" x="478.24" y="319.84" width="70.05" height="1.46"/></g></svg>